<svg xmlns="http://www.w3.org/2000/svg" width="1043.02" height="2067.12" viewBox="0 0 1043.02 2067.12"><g id="Layer_2" data-name="Layer 2"><g id="Background_Threshold_1_Image" data-name="Background + Threshold 1 Image"><path d="M109.8,1430c-.12-2.1-1-5.45,5.29-5.36-12.25-7.26-7.61-20.81-8.49-32.66.55-9.37,11.63-9.39-2.89-23.66,2.55-49.6-6.79-130.16-17.12-193.28-12.62-17.16,9-43.25-6.74-51,14.28-5.41,1.74-45.71-4.75-52.62,12.32-5-3.75-11.16,1.58-18.26,8.82-4.27-4.9-13.69-1.26-20.92,3-7.41-3.23-14.46-4-21.7,3.34-4.59-8.33-13.67,0-13,2.72-1.47,3-7.14-1.59-6.14,6.07-4.5,4-4.06-2.15-7.84,2-2.87,2.44-18.53-1.7-16.77,2.89-3.56,8.54-19.13-1.32-18.15-9.54-1.22,13.36-10.09-2-16.43,5.6-6.78,1-2.91-4-6.56,9.45-3,8.8-2.76,1.23-5.53-13.75-27.6,12.66-2.42-2.09-35C36.79,892,19.5,873.92.58,867c-3.07-13.78,7-30,9.3-44.2,15.16-41.48,4.33-66.18,57.4-60.21C85.4,703,111,645.55,148.83,595.91c80.81-98.73,221.33-111.59,340.54-120.51,91,6.07,80.8,22.77,116.23-65.3C632.88,334.4,688,248.22,695.68,176,732.87,126.9,753.93,61,777.85,2.87,793-7.59,815.23,13.53,830.76,18.76c11.76,8.94,30,3.73,39.7,14.6,9.59,8.79,23.49,20.87,10.25,33.58-10.84,33.16-21.4,67.36-36,100.56-44.73,113.3-100,230.12-137,340.87-5.79,22.21,63.19,27.76,85.79,50,26.08,27.5,58.51,46.79,84.18,75.39,23.76,34.31,58.92,53.65,72.36,93.26,6.86,13.81,18.8,29.2,24.59,45.5,5.76,12.7-1.93,3.59-4.83,10.71-12.53-2.24-14.76-22.56-21-32.77,8.3,1.81,2.3-6.38-2.23-12.34-15.5-11.21-69.83-111.49-119.89-133-30.07-36.92-71.35-57.7-115.67-73-23.59-11.33-21.49,34.16-32,49.68,4.11.73,4.86,2.88,1.72,6.2,8.47-2.62,15.18-.52,17.9,9,4.23,43.35-32.51,27.18-47.22,45.1-38.44-1.93-92.82,30.44-139.45,28-52.89,8.09-71.82-28.44-26.38-58.79-16.6-6.21,22.68-14.83,37-15.6C527.45,564,598.71,487.51,544,489.28c-39.17-3.93-80.15-7-118.47,1.92C321.21,502.88,203.34,525,142,621.54c-84.6,153-93.95,143,78.83,165.06,185.1,30.69,371.89,34.73,559.11,30.58,68.35-4.76,137.8-16.73,202.73-35.57,17.87-11.19,32.3,53.23,60,68,3.91,18.14-30.78,11.3-32.39,37.25-10.29-1.12-7.05-10.68-21.69-.89,1.08,83.33-23.81,165.46-19.16,249,.49,34.25-8.84,31.14-7.94-.22-14.51,29.9-9.65,83.32-14.75,121,12.82,82.7-26.58,268.61-33.1,391.16-9,99.9-5.6,202.06-21.89,302.42-3,34.52.83,62.25-39.27,74.2-110.79,41.71-230.37,51.3-347.67,37.71-99.66-6.69-205.86-4.91-295.4-54.31-15.17-9.63-43.76-24.33-42.76-43.79,7.15-14.61-9.56-32,.57-44.84-16.41-30-12.53-88.85-20.62-128.85,0-10,5.3,1.93,7.92.84-4.57-15.55-4-33.77-5.91-51.78-2.32-77.55-33-156.11-26.44-231.69-6-1.75,1.14-8.31-2.26-11.63-7-6.93-1.71-14.28-4.13-21.82-3.64-3.37,6.42-13.48-.14-9.43C103.37,1453,123.43,1432.43,109.8,1430ZM974.22,900.6c7.49,12.44,16.07-10.33,4.74-13.08-1.7,11.08-4.55,18-6.14,3.11C943.61,907.16,857,906.73,856.67,919c-3.92,10-8.59,10.62-15.54,2.31-147.56,15.28-301.73,16.67-452,.88-92-9.89-182-15.78-271.44-31-13.83-.59-34.09-12.45-44.77-2.92,4.69,37.89,8.51,75.6,13.59,113.57,13.55,34.74,46.69,350.35,18.54,180.52-5.3.25,11.84,170.93,11.58,113.58,2.67-2.26,4.45-1.56,4.94,1.81-11.46,77.62,13.36,166.66,16.72,248.87,7,60.7,20.18,145.27,25.45,227.39,3.93,48.75,26.11,113.47,14.33,155.46,7.85.14,13.53,12.87,2.44,6.54,1,4.25-3.39,8.49,1.81,12,1.37,3.32-4.07,4.76-7,5.46,20.29,121.16,659.12,134.62,703.38,30.58,19.65-210.81,24.63-424.53,46.92-635.21,2.05-14.37.08-70.79,8.1-32,7.53-50.17,1.46-105.21,11.88-156.64C957.51,1061.71,973.75,910.09,974.22,900.6ZM695,334.92c2.47,6-16.09,1.33-24,9.65-22.66,8.87-38.67,16-45,41.78-7.57,38-75.84,119-7.86,79.85,28.43-9.58,57.52-16.88,85.55-27.93,8.33.61,17.26,10.83,18.7-2.48C742.5,361,829.63,271.35,695,334.92ZM523.09,621.64c-24.59,36-20.78,43.15,22.5,31.62,33.82-7.74,82-14.17,107.14-33,18.95-28.87,20.55-58.49,35.54-89.36C652.69,506,596,548.58,560.23,560.2c3,6.22-4.24,3.22-8,3-1.8,8.51,4.63,20.89-8.2,22.12-11.7,1.58-6.74,9.52-6.43,14.12C532.55,608,530.57,619.82,523.09,621.64ZM842,143.67c-44.87,10.78-91.21,32.32-133.09,41-12.29,28-19.23,57.85-33.34,85.13-1.37,2.83.64,5,3.51,4.18,43.21-12.17,79.64-35.21,127.5-47C823.3,204.05,833.2,171.48,842,143.67ZM511.1,919.77c-3.67-13.46-7.13-109.81,8.48-83.16C523.4,875.92,501.3,937.43,562,923c-10.17-94.25,19.18-102.89-89.67-95.77C472.82,865.92,451.75,928.35,511.1,919.77Zm150.68.22c-27.41-9.29-9.32-61.48-17.51-85.88,9.25-8.94-43.62-12.09-36.71-1.26,3.73,28.67-5.47,69.32,14,91.81,94,8.48,64.81-22.2,67.91-96.53C630,814.08,665.79,882.76,661.78,920Zm73.05-790.48c22.28-16.5,159.94-35.17,127-66.16C834,58.83,805.26,48,788.86,23.88c-6.9-4.55-3.53-13.54-10-1C769.54,60.84,747.43,92.35,734.83,129.51ZM931,890.47c-11-25.07-10.77-57.23-20.38-80.56-10.25,4.88-39.06-2.44-32.4,15.34,3.94,28.58,8.87,47.67,18.78,67.53-27.39,11.85-25.86-65.95-29.86-71-9-9.52-29.79.86-42.18,2.91,13.49,18.61,10.34,55.68,22.49,80C875.63,901.39,904,899.69,931,890.47ZM197.88,793.3c12.49,73.06-38.74,105.65,57.53,105.2C234.06,852.45,278.93,781.59,197.88,793.3Zm113,110.34c-17.69-50.73,27.87-108.25-52.68-100.93,3.13,31,3.87,65.6.53,95.91ZM89.18,820.88c-5.28-18.14-5.31-31.87,0-47.18-17.88-3.61-35,2-52.89-5,1.52,8.2,7.8,15.66-4,15,1.25,8.55,6.64,1.11,9.75,3.51,6.44,19.42,3.53,40.25,5.48,60.31C35.69,873.44,84.09,883.3,87.63,869,91.52,852.81,82.3,834,89.18,820.88Zm318.46,92C390.88,868.59,439,809.36,377.3,815.17c-26.6-10.45-9,30.06-14.43,46.48C360,899.58,364.55,917.47,407.64,912.93ZM143.54,806.16c5,23.5,2,53.86-1.61,77.8,13.21,3.55,26.66,4.26,40,7.09,10.51-20,2.17-52,5.74-75.93,8.41-29.34-14.68-24.85-36.89-28.9-6-.82-8.09,4.74-.94,6.15C151.62,792.44,146.39,806.13,143.54,806.16ZM461.62,914.85c-7.23-44.86,19-105.69-43.88-92.76C425,865.19,392,927.65,461.62,914.85Zm274.87-85.61c5.36,43.52-17.76,106.2,49.65,86.37C771.4,874.43,801.84,812.23,736.49,829.24ZM133.86,883c-2.81-23.6-.34-49.27,6-68.43-16.25,5.24,23.2-41.34-38.08-38.55-.25,26.47-4,52.5-1.4,79.48C88.73,884.4,112,879.55,133.86,883Zm222.51,25.21c-4.68-30-4.29-61.13-1-91.27-1.06-10-22.15-4.37-30.35-7.54-19.74,7.52-3.38,46.7-6.22,65C317.17,906.8,325.21,907.62,356.37,908.22Zm428.11-81.54c6.29,25.86,6,52.16,11.1,78.13.69,5,4.95,9.19,9.76,8.31,43.68.82,21.66-28.28,18.33-57.45C818.88,812.9,821.73,826.71,784.48,826.68Zm139.41-20.23c4.69,35.95,4.68,102.84,55.28,71.81C954.41,850.73,974,780.75,923.89,806.45ZM604.48,924.2C586,889.38,622.33,814,567.05,827.07,576.5,860.21,550.1,936.16,604.48,924.2Zm128.4-4.5c-16.09-24.22,5.39-74.41-12.55-90.55-34.43-10.21-15.62,31.64-20.4,53.19C700.53,909.35,702,926,732.88,919.7ZM986.43,793.36c-32.21-1.13-19.62,15.93-13.73,37.83,5.57,11,7.5,49.86,25.08,40.08C1008.84,848.59,1003.43,817.28,986.43,793.36ZM31.36,790.69c-8.44,28.36-37.45,73.94,4.58,81C35.5,844.88,37.6,816.64,31.36,790.69ZM497.22,611.18c-5.84,0-.06,16.63-5.27,5-12.27,6.18-21.74,23.92-15.83,36.09,13,16.15,22.26-8.16,27.74-18.89C514.63,611.45,518.31,604.64,497.22,611.18Zm299-597.4c-1.42,27.43,108.15,50.8,62.39,28.07C836.7,43.36,818.4,18.35,796.21,13.78ZM687.88,593.61c-17.4,1-17,15.38-22.77,28.92C678.16,621.3,694.18,609.31,687.88,593.61Zm325.75,241.54v22.57C1034.2,852.72,1024.71,846.2,1013.63,835.15ZM696.75,510.59c5.59-11.39,1.28-11.93-8.66-8.29C685.56,511.59,693,508.15,696.75,510.59Zm238.77,843.16c-6,1.91,4.13-6.6-.57-9.16C924.67,1350.6,936.3,1383.8,935.52,1353.75ZM669.17,287.13c4-2.7,9.82-2.65,10.37-6.44C672.14,277.63,671.93,280.49,669.17,287.13ZM879.8,1997.27c-1.77-2.51-11.7,7.09-10.22,9C873.61,2003.93,878.05,2002.06,879.8,1997.27ZM112.45,1415.38c5.73-.48,0-6.24-.62-9.71C108.94,1406.92,112.59,1412.51,112.45,1415.38ZM798.33,240.52l-8.73,2.53C793.85,249.68,794.48,245.66,798.33,240.52Z"/><path d="M820.24,1019.68c-9.19-2.74,15.46-7.74,7.94,7.28,7.11,10.68-3.52,29-9.83,39.07-1.2,26.22-7.55,71.51-7.61,106.07,8.88,128.38-.32,256.79-12.42,384.66-6.54,67.14,6.68,147.3-12.66,208.19C774,1632.57,797,1486.78,803.54,1350.43,808.65,1240.62,788,1124.76,820.24,1019.68Z"/><path d="M328.9,1925.06c-3.95-9.37-40.42-1.53-41.25-21,23.19-14.38,80,31.12,117.16,27.07,90.57,11.3,182.79-3.91,270.29-20.49C656.48,1953.77,381.75,1952.91,328.9,1925.06Z"/></g></g></svg>