<svg xmlns="http://www.w3.org/2000/svg" width="1755.95" height="2367.87" viewBox="0 0 1755.95 2367.87"><defs><style>.cls-1{fill:#fff;}</style></defs><g id="Layer_2" data-name="Layer 2"><g id="Layer_0_Threshold_1_Image" data-name="Layer 0 + Threshold 1 Image"><path d="M1755.27,1849.78c-2.06-99.07-38.19-211.46-71.6-290.3,60.7-69.07,105-188.1,15.65-253-49.38-37.19-121.09-63.56-178.59-30.42-.77-7.28-.63-5.22-8.19-4.47,47.73-46.35,22.12-118.74-2.16-171.76-33.75-73.31-109.69-113.08-152-181.26-76.78-74.74-282.13-84.82-387.15-76.07C834.93,842.8,703.47,874.63,594,958.74c-65.32,57.43-94.16,145.11-107.62,229-3.53,28,33,73.14-13.85,76.75-85.12,19.58-154.4,76.87-212.62,140-6.24,5.86-9.79,10.58-15.18,17.12-14.52,17.64-27.28,36.67-42.21,54-4.7,5.46-8.69,11.55-12.85,17.46-7.19,10.24-15.31,20-21.11,31-6.94,13.12-15,25.36-23.19,37.65-1.37,2.06-1.5,4.93-1.86,6.22-3.12,3.17-6.19,5.42-8.12,8.4-9.29,14.38-18.21,29-27.39,43.45-6.51,10.24-13.25,20.33-19.79,30.55a27.66,27.66,0,0,0-3.59,7.06c-3,10.73-5.69,21.58-8.75,32.31-2.58,9-3.44,19-12.68,24.77-.77.48-.88,2.3-1,3.53l-7.74,21.49c-.83,4.2-.91,8.34-2.49,11.8-2.54,5.57-4.52,10.93-3.58,17.23.26,1.73-.8,4.76-2.13,5.41-3.85,1.89-4.71,5.22-5.93,8.67a63.75,63.75,0,0,1-4.26,10c-6.94,12.35-13.69,24.77-17.62,38.5-1.46,5.09-2,10.78-4.74,15.1-8.43,13.42-9.3,28.89-11.73,43.59-2.51,15.2-1.6,31-2,46.49-.06,2.56,1.81,5.37,1.26,7.71A44.43,44.43,0,0,0,2,1966.52c6.59,23.78,12.47,47.82,28.46,67.68,2,2.52,3.29,5.69,4.79,8.61,4.24,8.21,8.28,16.51,12.64,24.65,7,13.08,13.35,26.61,21.49,39A278.84,278.84,0,0,0,123,2167.27c8.07,6.77,16.76,12.81,25.27,19,6.92,5,13.85,10.12,21,14.77Q191,2215,213,2228.54c7.56,4.65,15,9.85,23.15,13.15,24.57,9.94,45.74,19.73,70.7,28.66,131.34,28.16,265.62,44.93,396.44,76.54,121.76,8.82,242.78,12,364.39,18,196.92,16.57,396.79-35.18,549.56-161.26,48.17-51,78.08-119.47,102.63-184.56C1726,1961.3,1761.29,1909.56,1755.27,1849.78Zm-177.8-572.39c139.09,5.88,201.15,129.12,118.24,242.33-74.79,98.08-177.08,168.63-285.23,226.18,67.15-79.73,185.27-116.17,243.87-210,102.76-124.66-29.6-255.12-159.81-166.86-30,31-11.12-52.52,6.87-61.21C1517.15,1284.82,1550.28,1278.88,1577.47,1277.39Zm-180.64,461c-21,140.7-154.53,124.12-265,127.17-172.46-17-536.93,105.58-551.78-162.93,2.07-60.68-28.69-118.33-31.92-179-5.8-72.41,5.25-145.24-8.08-217,103.87,126.17,269.35,138,421.13,120.94,173.64.12,381.85,44.85,512.38-101-1.82,35.9-11.51,66.19-20.66,99.62-7.36,5.93-15.68,10.08-7.41,20.86-12.17,87.23-26.68,183.08-37.52,267C1402.34,1722.83,1387.78,1726.26,1396.83,1738.38ZM1321,1869.9c-32.45,74.16-117.27,41.93-178.56,42.7-54.78,8.45-108.1,22.08-164,13.11-61.76-1.93-121.68,27.74-183.34,10.77-35.16,3.58-75-9.71-56.17-51.8,32.3,6.75,64.06,5.06,96.55,7.29,81.75,12,162.36-15.34,243.29-12.88C1158.75,1882,1246.15,1877.84,1321,1869.9ZM839.5,928.4l.42,0c1.25-.49,2.51-1,3.79-1.4a1,1,0,0,1,1.21.77c38.29-4.74,76.45-11.26,114.3-16.74a29.19,29.19,0,0,1,8.45-1.28h.46c57-8,113.22-13,168.1-5.39,46.19,3.89,98.71,22.55,137.66,45.72a7,7,0,0,1,4,.26c14.67,5.59,26.44,15.06,38.57,24.74,10.6,8.47,22.35,15.31,32.18,24.75a105.16,105.16,0,0,1,15.7,19.22c48,38.31,80,112,107.77,166.58,6,159.17-169.44,205.41-298,208.83-86.31-7.36-174.14-15.21-261.22-14.29-81.89,3.4-163.94,8-240.18-28.45C412,1257.61,583.3,969.56,757,946.76a42.93,42.93,0,0,1,5-2.49c14.7-6.21,30.67-7.95,46.34-10.07,8.16-1.1,16.2-2.78,24.35-3.9,1.12-.15,2.25-.29,3.38-.42l.36-.11c1-.43,2.06-.85,3.1-1.26A.41.41,0,0,1,839.5,928.4ZM1034.64,885c1.94.51,6.18-1.27,6.44,1.2C1038.49,886.25,1034,889.24,1034.64,885Zm469,495.9.25-.08a51.76,51.76,0,0,1,10.91-9.66c11-7.38,24.36-11.55,37.23-14.07a149.84,149.84,0,0,1,41.56-2.69c11.79,1,24.68,3.27,34,11.15,8.82,7.46,12.9,18.13,13.21,29.1,6.54,22.95-3.71,52.19-18.15,69.47-13.48,47.72-91.4-54.18-148.62-37-22.14,5.76,19.33-49.47,27.06-42.55a42,42,0,0,1,2.66-3.58Zm27.51,249.53c-38.52,21.83-76.73,62.43-113.33,76.29,19.11-26.75,1.76-66.59,25.09-88.74,45-31.56,119.85-61,168.6-113.1l16.08-17.06c31-19.88,27-115.67,39-81.5C1703.4,1499.8,1599.08,1582.36,1531.16,1630.44Zm108.13-92.56c-1.71,1.41-3,6.19-5.18,3.55C1635.78,1540.32,1637.44,1535.63,1639.29,1537.88Zm-112.65,105.76a119.12,119.12,0,0,1-30.25,18C1503.26,1655.74,1520,1640.92,1526.64,1643.64Zm-88.81-46.4c5-47.55,13.62-99,22.69-147.12,19.66-20.35,58,3.15,85.78,11.74l37.65,24.5C1622.66,1516.85,1465.42,1574.62,1437.83,1597.24ZM558.66,1025.9c38.92-66.63,115-100.59,183.56-129.85,67.28-28.62,166.61-38.76,234.32-35.67,13.89-8.2,31.28-6.6,46.91-5.4,6.35-1.59,13-3,16.61,1.26l6.83.53c3-1.08,7.28.11,11.58.82,2,.13,4.07.24,6.11.35h.1c24.82-2.4,47.71,1.38,72.39,4.67,1.15.14,2.16.26,3,.39,30,.75,61.83,6.58,89,19.89l.84.3c4.21.2,8.43.24,12.61.78a62.44,62.44,0,0,1,8.73,1.87c12.06,2.08,25,5.09,37.15,7.79,28.36,9,34.31,13.88,33.91,18a72.31,72.31,0,0,1,28.14,22.6c2.54,1.76,6.11,4.94,11.27,10.19,14.21,24,25.6,40.93,36.54,57.91a10.27,10.27,0,0,1,6.7,2.53c.65.56,1.26,1.14,1.86,1.73l0-.15c.16.24.35.5.55.76,1,1,1.94,2.13,2.85,3.25,10.35,10.76,36.06,30.21,45.21,41.22a43.24,43.24,0,0,1,23.9,25.12c12.35,15.17,18.35,36.87,28.56,54.79a36.3,36.3,0,0,1,6.41,9.8c.18.25.35.5.54.74,37,64.17-26.73,186.5-112.31,229.29-.28-3.12,2-7-1.41-6.67-39,22.32-82.33,40.42-127.21,46.44-84.43,4.87-170.4,8.9-254.92-1.53-154.45.64-333.12,36.4-446.8-97.21,151.47,121.1,297.69,69.21,470.06,89.4,140.88,6.6,314.76,25.61,409.52-103.2,56.34-79.91,37.34-124,1.61-177.49,15.55,7-27.59-55.58-38.76-70.7C1291.49,880.71,1095,860.39,904.91,903.57,824.62,915.21,741,926,667.22,957c-76.52,48.25-133.27,134.52-145,224.59C507.52,1212.11,565.1,1305,549.15,1289,474.29,1215.75,511.57,1103.92,558.66,1025.9Zm-112.1,254c-1.89-.16-5.95,2.3-5.7-.63C442.64,1279.54,446.64,1277.33,446.56,1279.91Zm-21.17,5.79c-1.87.1-5.56,3.16-6.24.92C421.28,1286.15,424.39,1282.63,425.39,1285.7Zm1092.83,974.06c1.78-.69,4.45-5,5.71-2.69C1522.16,2257.75,1519.49,2262,1518.22,2259.76ZM1646.79,2144c-24.24,48.22-69.52,73.58-114.45,99.28-6,3.82-11.26,7.28-15.94,10.44-5.85,5.8-11.3,12-17.57,17.37a62.87,62.87,0,0,1-12.42,8.4,35,35,0,0,1-15.75,7.67,9.25,9.25,0,0,1-6.64,2c-7.66,3.81-17.25,7.74-31.2,12.64a14.5,14.5,0,0,1-1.37.67,60.26,60.26,0,0,1-11.73,3.8h0c-140.19,53-297.4,47.56-447.83,39.33-121-5.94-245.56-.23-362.19-37.17-104.48-18.56-210.86-28.19-312.74-58-14.44-5.87-25.56-11.32-40.14-16.83-18.1-6.84-34.26-17.45-50.34-27.78-7.77-5-15.35-9.77-23.78-13.53a76.06,76.06,0,0,1-15.11-9.43c-12.34-9.49-25.39-18.36-36.37-29.27-13.78-13.7-27.93-27-40.09-42.56-16.49-21.12-28.18-44.88-42.24-67.3-2.26-3.6-3.67-7.75-5.32-11.7-1.51-3.59-3.37-7.14-.92-11.24.39-.63-1.09-2.82-2.19-3.69-.42-.33-2.17,1-3.57,1.74A79.77,79.77,0,0,1,25,1993.54a30.39,30.39,0,0,0-4.32-10c-4.67-6.5-5.85-14-6.62-21.47-1.24-11.83-1.43-23.78-2.16-35.67-.22-3.63-.82-7.23-1.16-10.86-.25-2.6-.91-5.31-.46-7.81,3.3-18.5,6.78-37,13.92-54.5.12-.31.43-.56.49-.87,1.58-8.73,5.29-16.7,8.31-24.95,3.48-9.5,6.18-19,14.57-26.9.18,2.69,1.24,5.45.3,6.72-4.31,5.79-1.68,13.75-6.43,19.29-.54.62-1,2.11-.61,2.6,4.35,6.09,1.44,11.9-.47,17.77-.09.3.06.67,0,1-.91,26.23-3,52.48,2.25,78.55.65,3.22.51,6.58,1,9.85.56,4.21,1.35,8.39,2,12.59.27,1.64,1,3.31.81,4.9-1.79,18.11,7.27,33.89,11.56,50.58,2.43,9.48,5,19.62,11.39,28.15,4.68,6.24,7.07,14.15,11.06,21,7.55,12.88,15.28,25.66,23.43,38.17,3,4.61,7.22,8.52,11.2,12.42,7.25,7.08,14.73,13.91,22.13,20.83.73.68,1.95,1.05,2.31,1.85,6.13,13.59,20.45,18.42,30.35,28,5,4.8,12.77,6.58,19.12,10,10.8,5.88,21.28,12.37,32.23,17.93,11.21,5.68,23.1,10,34.2,15.88,17.1,9,32.6,10.57,50.78,15.34,210.23,42.88,424.85,56.69,639,75.59,115.69,12.91,234.91,36,349.57,8.37,128-35.49,266.22-81.24,353.33-187.28,24.54-27.66,40.09-57.12,55.53-88.42C1691.83,2065.92,1663.75,2102.92,1646.79,2144Zm60.68-161c-1.77,18.25-7.17,37.16-17.32,52.39,2-.77,2.42.23-2.13,7.32-16.17,21.85-29.52,51.45-53.3,63.1-82.18,98.87-212.58,138.36-331,176-150.37,33.09-302.62-6.72-453.15-15.67-191.19-18.7-383.51-30.71-571.27-73.94-24.09-6.35-43.09-16.79-64.47-29.42-16.52-9.75-33.1-19.58-48.53-30.92-11.4-8.37-21-19.2-31.36-29-4.55-4.29-9.57-8.22-13.42-13.07-8.4-10.6-17.42-21-23.93-32.72-10.75-19.36-20.94-39.2-26.32-61-4-16.07-8.73-32-11.16-48.37-2.72-18.2-3.24-36.74-4.63-55.14-.59-7.9-1.31-15.81-1.35-23.72,0-10.39,0-20.79,3-31,1.19-4,1-8.44,1.58-12.65.37-2.58.29-5.83,1.81-7.5,4-4.44,3-10,4.39-14.94,1-3.7.81-8.19,2.87-11.07a261.25,261.25,0,0,1,9.75-53.44,233.87,233.87,0,0,1,10-26.63c-2.13-3.28-2-6.37-.92-10.07,4.26-14.3,8.29-28.66,12.5-43a21.61,21.61,0,0,1,2.55-5.36q10.53-16.52,21.2-32.94c8.31-12.78,16.74-25.48,25-38.29,13.67-21.17,27.08-42.51,40.95-63.56,9.13-13.84,18.74-27.37,28.41-40.85,2.86-4,6.74-7.25,10-11,6.05-7,12.17-14,17.86-21.23,1.73-2.21,2.17-5.44,3.35-8.61l5.1-2.51a32,32,0,0,1,7.69-9.67c-2.87-6.23,16.48-19.21,21.12-25.41a268.37,268.37,0,0,1,47.45-43.45,11.07,11.07,0,0,1,1.83-1.39,32.79,32.79,0,0,1,21.78-17.48c16.83-18.26,99.85-60.2,101.56-51.6a31.43,31.43,0,0,1,18.61-6.71c-.23-1.26,5.13-3.45,25.55-8,49,57.92,26.42,142.22,32.64,214.35,2.86,93.22,31.63,183.23,42.48,274.93C588,1837.53,664,1872.4,732.65,1886.7c-29.3,39.22,9.78,67.56,50.68,65.08,66.25,14.45,129.35-11.3,194.86-10.25,65.33,12.07,128.31-15.89,193-12.8,66.37,17.14,151.39,7.59,165.27-72.64,23-16.58,44.89-33.27,53.82-61,27.36-60.84,112.6-71.34,161-113.31,30-25.89,59.84-53.08,90.33-77.76,11.35-6.27,21.1-38.58,33.4-14.92,49.93,78.26,60,184.75,65.39,277C1742.39,1906.08,1725.76,1945,1707.47,1982.93Z"/><path d="M713.26,731.94c-6.09-.11-10.79-3.78-15.54-7.73a71.15,71.15,0,0,1-7.29-5.7,27.54,27.54,0,0,0-4.9-2.64l2.44.34a79.21,79.21,0,0,1-20.69-34.66,16.06,16.06,0,0,1-1.81-3.64c-13.16-28.78-41.13-60.95-29.94-95.61C630.87,459.6,767.77,365,742.23,239.09,710.57,179.76,680.85,105.51,710.1,39.6c-8.59-35.83-39,38.68-25.54,52.31-1.83,29.22,12.08,54.58,24.54,79.78l-.14.11a26.08,26.08,0,0,1,2.79,5.9,34,34,0,0,1,1.12,14.08,229.89,229.89,0,0,1,4.66,30.59c13.54,39,17.62,78.76-6.46,121.12C653.5,452.72,556.8,595.05,665.14,704.94c14,22.19,39,45.74,67.34,37.36a25.91,25.91,0,0,0-4.84-7.62A54.8,54.8,0,0,1,713.26,731.94Z"/><path d="M1476.15,3.3c-95.84,169.38,6.34,267.21-30.54,384-40.82,95.46-190.81,177.42-127.36,295.46,12.41,5.67-1.09,17.33-10.09,15.39-30.4-31-16.06-77-14.42-116C1312.41,486.61,1428.57,443,1439.6,344c-2.62-77.76-42.87-157.4-14.19-234.81C1421.54,88,1445.57-20.1,1476.15,3.3Zm-48,234.51c5.65-15.87-4.32-45.76-5.57-65.87C1416.37,183.27,1420.88,219.83,1428.18,237.81Z"/><path d="M1124.6,275.3c-.16-1.25-.23-2.5-.28-3.75-11-61.37-30.36-119.25,21.55-192.73-32.81-29.8-53.16,82-44.46,105.85-1,6.53,4.92,20.84,5.73,29.41a9.22,9.22,0,0,1,.94,3.85,61.64,61.64,0,0,1-.76,11.61,93.42,93.42,0,0,1-1.38,35.24c2.48,11.51,5.29,22.92,8.67,34.3,15.93,98.19-110.78,138.5-139.53,220.81-15.16,60-22,145.91,29.21,190.14,28.42-.09-26.34-48.5-18.37-79.55-36.65-137,99.66-174.41,142.18-280.54,3.31-24.1,1.38-46.76-2.16-68.85A29.1,29.1,0,0,1,1124.6,275.3Z"/><path d="M1514.74,1142.34l.15-.18a23.17,23.17,0,0,0-2.18-4.2l-.26-.25A37.54,37.54,0,0,1,1514.74,1142.34Z"/><path d="M425.39,1285.7c-1.87.1-5.56,3.16-6.24.93C421.28,1286.15,424.39,1282.63,425.39,1285.7Z"/><path class="cls-1" d="M702,726.89A13,13,0,0,0,713.56,732,60.69,60.69,0,0,1,702,726.89Z"/><path d="M1428.18,237.81c-7.29-17.89-11.81-54.63-5.58-65.87C1423.86,192,1433.83,222,1428.18,237.81Z"/><path d="M911.6,1277.6c9.61-15.6-18.44-17.37-28.32-17.92-22.32-21.45-111.76-49.25-106,1.63,20,37.55,70.29,65.49,111.37,46.6C929.94,1305.13,967.81,1329.67,911.6,1277.6Zm-90.55,8.63c-3.73-.61-7-3.28-9.47-6.66-5-2.63-8.81-7.52-12.68-11.9a9.66,9.66,0,0,1-2.26-8.87c-2.09-.23-4.19-1.94-6.84-5.09,4.78-2.62,9.68-2,15.74-2.06a11.09,11.09,0,0,1,1.32-.15c9.25-.4,19.16-.26,28.22,2.11a101.51,101.51,0,0,1,64.14,34.19C869.63,1301,847,1300.21,821.05,1286.23Z"/><path d="M997.77,1299.31c1.58-11.63-22.56-20.35-13.49-25.31,36.51-19.69,121.73-100.87,142.7-30.24C1106.51,1294.81,1042.94,1285.1,997.77,1299.31Zm89.72-31c60.16-49.15-10.36-41.27-43-16C985.12,1282.63,1057.7,1278.09,1087.49,1268.36Z"/><path d="M952.59,1027c-17.36-73.08-68.1,19-49.15,54.48a22.26,22.26,0,0,1,8.68-2.11c-.1-.64-.16-1.27-.2-1.89a42.6,42.6,0,0,1,.47-8.81,43.1,43.1,0,0,1,2-8.43c1.81-17.31,4.71-36.36,18.35-46.2,16.25,27.27-8.25,51.49-9.24,80.39-1.19,7.62-7-1.45-13-3.73,0,.31,0,.63,0,1-.95,14.27,8.06,23.92,17.29,33.36,2.45-.49,6.56,1.07,12.06-2.37-4.19-12.49-2.29-30.62,5.74-54.64-13.2-8.68,6-1.33,4-13.21C953,1040.77,961.61,1042.24,952.59,1027Z"/><path d="M928.46,1209.92c-1.93,31.57-52.39-1.45-67-11.91C763.88,1118.57,896.89,1097,928.46,1209.92ZM841,1153c12.56,17.22,50.27,62.15,70.39,46.07C892.07,1184.12,868.93,1126.36,841,1153Z"/><path d="M989.1,1174.84c-46.13,8.23,65.88-97.63,91.27-50.41,4,34.2-42.23,43.67-68.63,48.32-15.89-1-20.54,15.13-34,18.33C960,1181.43,989.58,1180.56,989.1,1174.84Zm33.2-27.2c17.53,2.77,35,2.87,41.56-17.24C1047,1130.65,1032.66,1134.06,1022.3,1147.64Z"/></g></g></svg>