<svg xmlns="http://www.w3.org/2000/svg" width="2517.52" height="1097.96" viewBox="0 0 2517.52 1097.96"><g id="Layer_2" data-name="Layer 2"><g id="Layer_0_Threshold_1_Image" data-name="Layer 0 + Threshold 1 Image"><path d="M2407.07,519.19c8.7-20.7-31.6-16.5-35.6-33.2-27.7-7.4-46.9-23-76.8-21.4,10.7-13.3,23.5-13.5,36.5-9.4,65.4,17,148.1,80.9,115.3,155.7,60.1-4,82.6,58.3,65.5,108.5-38.9,91.1-170.8,95.3-249.4,141.7-107,51.9-214.3,106.7-334.9,116.5-515.3,76.8-1040.4,42-1556.7,102.3-140,34.6-466.3,41.5-344.1-186.7,33-63.6,119.3-58.2,109.7-112,.8-21.2,10.7-37.2,27.8-49.3,39.8-22.8-49.5-34.1-60.9-64.4-34.1-47.1,1.1-107.9,39.3-141,4.3-16.2-41.2-17.3-54.5-30-60.2-76,69-148,101.9-209.4,66.1-152.1,248.1-218.4,404.5-187.7,123.1,36.1,95.9,41.2,230.9,19.5,154.4-22.6,301.7-96.7,459-92.5,49.9,4.3,99.9,19.4,134.1,57.8,38.6-41.3,102.6-49.2,154.5-67.1,125.2-38.9,264.4-10.4,363.9,75.2,120.5-48.1,259.5-21.5,355.2,66.1,37.5,27.8,55.1,74.4,28.6,116.1-19.7,23.8-42.8,23-4.5,46.3,33.5,21.2,82.1,60.2,63.4,104.3-21.7,32.1-64.6,13.3-94.2,29.2-8.2,5.7-15.2,27.2-7.7,34.8,68.1,104.4-126.4,69.6-179.6,68.5-22.9-3-45.6-4.7-68.5-8.1,18.7,25.4,60.7,47.5,54.5,84.5-2.8,7.2-2.5,15.2,7.1,15.4,78.6,8.6,158.5,21.2,237.1,5.8C2398.67,648.79,2495.27,578,2407.07,519.19Zm-318.8,138.2c-101,140.4-379.8,221.6-570.9,130.5-12.3-14.5-27.8-3.9-31.3,11.8-93.2,135.8-316.2,77.6-453.3,65-43.2-16.4-86.4-33.4-124.2-60-84.7,119-251.6,127-385.3,132.3-97.7-1.1-198.1-4.8-291.1-37.3-29.6-1.7-57.2-48.8-79.7-21.5-17.2-3-24.6,20.3-37.3,34.2-12.8,17.7-.6,32.1,6.8,45.9,69.3,85.3,177,8.5,264.2,9.8,58.6.1,115.1,19.4,173.3,21.1,104.9-17.7,206.9-51.4,315.2-37.5,173.6,28.2,127.9-69.7,188.4-58.4,55.6,13.3,116.2,11.9,167.5,39.4,141.1,72.6,290.2-16.3,429.5-42.8,284.6,45,127.5-58.1,433.4-86,146.8-15.7,14.4-81.1,207.1-79.8,39.7,4.9,86.2-16.9,67.5-63.7C2276.77,686.89,2178.77,677.59,2088.27,657.39ZM710.07,143.59c45.7,33.8,91.7,66.8,120.7,114.6-.1,13.4,15.1,19.6,15.1,32.8,2.2,2.6,12.7,5.4,9.7,10.5-3.1,5.6,3.4,7.2,3.4,11.1,9.2,2.4.5,20.4,13.6,20.8-9.6,50.5-68.3-115.8-101.8-123.2-120.8-130.3-331.9-134.5-474.5-37.6-44.8,29-77,80.3-96.1,126.3-11.2,7.2-15.8,20.1-24.9,29.2-6.9,7.5-20.7,9.6-16.3,23.3-18.6,14.9-26,36.8-46.9,47.8-8.8,21.4-16.2,46.1-23.5,74.2,28.2,33.2,78,31.2,117,38.6,165.5,29.1,330.1-30.2,497.3-14.8,205.1-12.5,409.8-20.9,615.3-18.2,134.1-6,266.4-29.6,400.9-33.7,183.5-10.4,358.5-60.7,523.9-138.2,31.1-6.4,5.9-9.3,4.4-23.9,47,20.1,83.3-23.4,71.7-70.7-22.4-50-77-78.7-124.1-102.1-79-38.3-165.5-39.3-247-7.9,39.1,36.4,62,78,81.4,126.8,3.1,4,.6,8.2-4.6,7.7-105.9-239.2-388.3-286.8-597.9-144.4,21.8,37.5,31.2,77.6,39,119,9.4,11,69.9,103.9,31.1,85.1-2.7-31.5-26.6-51.9-40.2-78.6-17.8-41.2-14.6-90.8-47.9-124.9C1250.47-58.41,915,157.09,710.07,143.59ZM158.27,529c-112.1,84.9-31.2,202.1,93.8,170,56.7-10.8,87.7-67.8,145.3-72.7,85.9-9.2,97,103.2,238.6,103.8,80.6,22.9,120.2-30.5,166.3-84.1,130.9-57.5,235.1,125.3,367,61.8,39.3-8.6,38.2-54.2,67.9-74.8,165.8-87.6,333.6,95.2,504.4,51.7,58.8-19.1,79.7-22.7,66-90.1,109.4-110.2,289.1-32.7,426.4-47.3,67-3.7,40.2-28.1,29.1-74.6-3.8-65.8,106.7-13.8,108.2-70.3-8.2-47-63.5-69.6-98.4-96.4-201.9,103.7-423.2,153.1-649.9,158.2-152.4,13.3-304.1,38.2-457.7,27.8-230.3,4.6-460.8,16.1-690.5,27.9-86.8,6-172.1,29.9-258.9,8.7-12.7,1.4-22.2-.4-35.2-2C172.77,516.39,158.87,545.09,158.27,529Zm-83.7,331.3c-110.1,84.2-69.8,210.6,70,221.7,110.6,12.8,220.2-15.2,329.1-30.4,173.3-22.9,347.5-3.7,520.9-24.3,356.9-22.1,721.5-9.7,1070.8-93.3,121.3-46.4,234.9-107.1,356.6-153,62-16.3,120.5-93.4,61.3-149.1-13.3-6.2-30.9,5.5-44.8.6-21.3-4.5-38.7,19.3-59.3,24.6,17.8,40.2-12.2,81.9-55.5,80.3-40.2,8.1-109.9-10.9-134,27.3-1.5,20.7-11.1,32.2-31.4,37-81.9,31.9-178.2,20.9-256.6,61.8-21.3,18.7-41.8,40.1-70.9,45.9-55.6,17.1-109.6-2.1-165-5.9-87.4,9.4-166.6,59.1-255.4,66.5-103.8,23.3-189.5-37.1-287.9-52-25.5.5-69.9-29.5-85.6-2.7-9.9,39.9-52.6,46-86.8,53.9-111.7-3.8-226.4-15.4-334.4,26-81.7,21-161-13.5-243.1-13-90.8,8.7-217.7,76.8-273.2-33.5-13.7-39,29.8-70.3,53.2-96.1-8.6-8.6-12.1-32.5-27.4-26.1C108,836.89,86.27,843.49,74.57,860.29Zm77.6-58.5c13,161.6,557.2,138.5,662.3,64.9,86.7-25.3,130.7-145.9,40.6-195.9-38.6-39.8-66.9,5.4-89.8,37.1-64.9,72.5-198.3,35.1-270.1-10.6-64-82.2-117.9-68-190.1-6.5C250.87,725,133.47,713.19,152.17,801.79Zm1220.6-175c-210.4-26.9-100.1,125.4-296.8,105.2-71.8-4.4-119.7-73.9-191.2-80.1-72.3-9.6,25.1,26.1,27.6,66.2,8.7,25.6,6.4,51-.3,76.5,41.8,20.6,76.9,44.1,123.3,53.3,126.9,25.5,260.1,42.2,384.5-4.7C1544.27,779.49,1475,664.59,1372.77,626.79Zm127.6,145.7c135.8,44.6,293.5,59.5,426.9-8.8,57.5-29.5,153.4-74.4,141.3-150.8-40.1-54.6-74.7-76.1-143.9-57.4-32.3,10-90.3,11.2-102.5,46.1,18.8,55.5-25.9,85.7-75.4,96.5-110.5,28.9-217-28.4-319.8-62.6C1464.07,670.79,1513.77,716.59,1500.37,772.49Z"/><path d="M2334.47,521.29c18.1,8.6,41.7,1.3,56.7,15.2,6.5,9.8,29.1,27.3,15.4,38.3C2377.87,590.89,2319.87,553,2334.47,521.29Zm16.2,21.3c10.8,16.4,24.1,22.5,43.6,22.3C2386.77,544.19,2373,535.89,2350.67,542.59Z"/><path d="M2172.47,590.29c23.8-13.2,55.1,16.5,71.4,32.8,7.9,29.1-28.8,17.5-42.8,6.3C2184.17,622.19,2186.27,600.69,2172.47,590.29Zm25.6,14.8c5.9,12.1,19.6,20.1,30.2,19.3C2217.67,617.69,2207.87,611.39,2198.07,605.09Z"/><path d="M2048,310.29c-8.2-.6-9.3,13.9-19.2,11.1-14.5,1.7-42.3,8.2-47.2,22.4-40.4,10.6-93.9,22.7-140.6,28.5-223.9,34.8-458.1,45.3-682.6,42.6,110.8-30,251.2-5.9,371.4-20.2,192.2-19.8,398.1-19.5,567.2-124,13.5-10.2,11-6.4,18.8,3.7C2096.17,283.69,2068.67,298.29,2048,310.29Z"/><path d="M564.47,204.49c24.7-16.3,91.7,15.5,119.7,30.4,10.3,14.8,66.3,50.8,55.6,63.2C672.27,239.79,659.17,223.29,564.47,204.49Z"/><path d="M1741.57,94.59c33.4-16.2,161.6,49.9,149.9,91.8C1854.27,136.49,1799.07,112.29,1741.57,94.59Z"/><path d="M1224.67,117.29c52.7-11.9,142.8,37,148.1,97.4C1323.47,153,1309,139,1224.67,117.29Z"/><path d="M2140.67,154.49c23.4-27.7,100.8,40.2,88.5,68.2C2197.77,199.89,2199.27,164.19,2140.67,154.49Z"/><path d="M1703.57,602c3.7-21.6-12.6-55-32-66.5,28.2-20.6,43.1,41.9,46.7,62.1-14.4,58.6-99.4-33.2-127.1-2.2-25.4,49.8-76.4-11.5-112.5-14.2-11.2-8.4-64.9-56-62-27.6-24.4,4.2-22.1-21.9-.1-22.3,29.1-11.6,83.7,53.6,123,60.6,49.9,40.3,48.3-69.4,92.9-9C1654.07,590.59,1679.27,600.39,1703.57,602Z"/><path d="M2034.17,489.29c-39.5-2,19.7-24,35.9-19.6,51.6,17.7,103.1,65.4,98.1-29.9.4-8.3,6-14.3,13.3-15.6,29-11.6,51.2-34.7,81.5-45-.5-12.6-13.1-15.1-16.9-24,4-8.5,9.5-10,15.7-4.2,46.5,42-26.3,46.9-48.9,71.6,17.9,13.6-34.9,7.2-32.5,28.4,8.5,38.3-21,75.2-60.9,57.2C2091.17,492.09,2066.67,472,2034.17,489.29Z"/><path d="M567,575.69c-15.8,4.3-.7-16.8,10.3-4.5,42.3,22.9-1.9,72.2,28.9,96,60.5,42.7,62.2-74.1,104.1-52.5,10.9-22.1,54.6,7.2,54.4-26.1,1.6-12.7-3.1-17-5.9-26.5,22.2-17.4,18.1,21.2,17.2,33.9-5.1,35.5-54.4,17.9-77.5,27.7-21.1,23.4-29.2,62.3-66.7,64.9-23.2,3.3-51.3-12.5-51-41.3C585.27,621,590,595.49,567,575.69Z"/><path d="M1017,591.59c-9.6-32.5,39.9,14,42.1,26.5,23.4,39.6,71.7,4.2,75.9-28.8,18.8-64.9,91.9,4.1,111-51.7,17.1,7.4-1,30.9-12.9,34.9-23.2,11.4-50.7-13.9-73.4,2.3-19.2,9.5-12.1,37.5-29.1,49.5-19,22.1-56.8,35.9-77.8,8.5C1049.37,623.79,1017.47,576.09,1017,591.59Z"/><path d="M181,578.39c2.8,6.5,3,6.8-1.6,9.7-5.6,7.9-13.3,6.3-12.3,19.2,7.3.4,3.5,4.3,1,9,8.1,17.6,32.6,16.8,35.1-3.5,27.8-41.7,78.4-10.4,115.2-33.3,42.6-56.3,22.6,20.2-15.4,20.4-23.9,7.7-48.5-7.9-71.9,3.7-22.7,15-30.2,60.6-66.4,30.3-18-22.1-3.7-55.8,10.8-75.5C190.17,548.59,196.77,571.29,181,578.39Z"/><path d="M296.37,803.19c13,7.9-10.6,2.8-14.1,8.8-24.9,15.4-65.1-14.8-40.8-42,15.7-18.1,81.9-65.5,70.8-25.3C304.27,769.09,311.57,784.69,296.37,803.19Zm-5.2-63.1c-4.3,21.6-56.2,30.5-38.6,57.4C296.57,820.59,298.57,752,291.17,740.09Z"/><path d="M396.17,819.79c1.4-21.4,13-45.7,28-59.7,25.3,5.6,34.6,51.6,28.4,75.8C441.87,870.59,391.17,853.79,396.17,819.79Zm27.7-40.6c-8.9,7.9-12.7,17.5-12.8,29.7C409.27,880.19,476.67,823.39,423.87,779.19Z"/><path d="M739.07,784.49c-8.5,3.7,2.1-15.9,7.6-14.1,16.7,2.4,28.7-16.9,46.8-9.5C861.67,753.29,802.37,859,739.07,784.49Zm14.7,0c18.6,8.8,46,26.3,55-3.2C809.17,758,767.27,778.49,753.77,784.49Z"/><path d="M603.87,781.59c10.9,6.9-.3,12.5,2.4,18.6,3.2.9,5.4-.4,9.7-.9-8.9,14.6,9.7,27.7,8.8,43.2,7.8,39.1-62.6,36.5-48.3-1.7,3.7-13.2,13.1-25.9,14.6-39.1C586.27,790,597.07,788.79,603.87,781.59Zm-4.9,37.8c-3,11.7-13.4,23.1-10.3,34.2C616.47,871.89,617.67,832.59,599,819.39Z"/><path d="M1360,691.39c39.8,4.6,12.9,51-15,50.5-15.6,1.1-53.5-5.7-51-25.1C1288.77,699.19,1345.67,699.59,1360,691.39Zm-55,29.8c45.9,29.8,101.7-38.1,23.8-7.4C1319.37,721.59,1321,713.19,1305,721.19Z"/><path d="M1205.77,826.89c1.5,39.5-51.5,14.9-44.2-14,10.4-15.8-12.6-39.8,6-48.3C1184.27,780.59,1206.87,799.29,1205.77,826.89Zm-29.1-31.5c-2.9,16.6-8.3,37.2,14.8,39.7C1199.27,820,1192,800.19,1176.67,795.39Z"/><path d="M1025.67,747.79c43.5,82.4-42.2,90.2-36.1,44.6C996.87,780.09,1009.07,734.79,1025.67,747.79Zm-24.8,53.3c27,17.1,35.5-18.1,14.8-32.6C1006.47,777.39,1001.77,788,1000.87,801.09Z"/><path d="M1739.37,730.09c22.6-9.5,56.9,11.6,66.5,34.8,10,35.8-61.1,35.3-49.7-1.1C1765,747.79,1749.07,740.49,1739.37,730.09Zm32.1,18c-10.4,19.2,5.6,44.5,22,22.9C1795,760.69,1779.57,751.89,1771.47,748.09Z"/><path d="M1952,616.79c-65.6-.2,15.6-67.6,41.8-36.2,10.1,12.9-13,24.1-19.5,33.8C1970.17,620.39,1957.27,611.79,1952,616.79Zm-4.2-15.5c13.4,6.1,27.1.7,32.1-14.2C1961,584.19,1951.27,588.19,1947.77,601.29Z"/><path d="M1627.37,725.69c-1.5,17.1,12.5,30.2,16.5,46.4,6.3,25.3-35.7,32.2-37.5,5.6C1609.07,762,1603.17,717.59,1627.37,725.69Zm-6.3,28.7c.8,9-8.1,25,2.7,26.6C1637,778.29,1628.57,762.09,1621.07,754.39Z"/><path d="M1928.77,692.59c.3,38-69,10.9-65.9-9.3C1881.47,673.49,1925.57,660.09,1928.77,692.59Zm-41.9,3.5c12.2.9,27.1,10.4,30.6-4.1C1914.07,679,1891.47,684.29,1886.87,696.09Z"/></g></g></svg>